<?xml version="1.0" standalone="no"?>
<!DOCTYPE svg PUBLIC "-//W3C//DTD SVG 20010904//EN"
 "http://www.w3.org/TR/2001/REC-SVG-20010904/DTD/svg10.dtd">
<svg version="1.0" xmlns="http://www.w3.org/2000/svg"
 width="410.000000pt" height="410.000000pt" viewBox="0 0 410.000000 410.000000"
 preserveAspectRatio="xMidYMid meet">
<metadata>
Created by potrace 1.11, written by Peter Selinger 2001-2013
</metadata>
<g transform="translate(0.000000,410.000000) scale(0.100000,-0.100000)"
fill="#000000" stroke="none">
<path d="M1889 3956 c-2 -2 -29 -6 -59 -9 -72 -8 -114 -14 -175 -27 -27 -6
-59 -12 -70 -14 -50 -10 -268 -87 -340 -121 -77 -36 -258 -138 -275 -155 -3
-3 -25 -19 -50 -35 -24 -17 -51 -37 -60 -45 -8 -8 -37 -33 -64 -55 -107 -87
-256 -253 -335 -375 -20 -30 -39 -56 -43 -58 -5 -2 -8 -8 -8 -13 0 -5 -11 -27
-25 -49 -14 -22 -22 -40 -18 -40 5 0 3 -4 -4 -8 -24 -15 -175 -382 -157 -382
2 0 0 -9 -6 -21 -13 -23 -45 -181 -57 -279 -10 -83 -10 -375 0 -460 15 -117
68 -341 97 -405 5 -11 21 -51 36 -90 15 -38 36 -85 46 -103 10 -18 18 -39 18
-46 0 -8 3 -16 8 -18 4 -1 29 -41 56 -88 27 -46 54 -90 60 -97 29 -33 36 -43
36 -53 0 -6 7 -13 15 -16 8 -4 15 -11 15 -18 1 -16 176 -206 241 -261 150
-126 254 -197 401 -273 84 -44 240 -110 278 -117 8 -2 15 -4 15 -5 0 -2 4 -3
130 -35 55 -14 116 -27 135 -30 119 -17 172 -20 315 -20 177 0 240 6 365 30
14 3 34 7 45 9 11 2 38 9 60 15 22 6 42 10 45 10 37 -2 420 161 428 183 2 4 8
8 14 8 6 0 30 14 55 30 24 17 46 30 49 30 7 0 88 64 92 73 2 4 8 7 14 7 11 0
58 40 153 130 66 63 162 165 156 165 -3 0 12 18 32 40 20 22 37 45 37 52 0 6
4 13 9 15 16 6 117 171 164 269 73 151 144 360 163 484 3 22 7 42 9 45 24 40
26 486 2 610 -9 47 -19 99 -22 115 -3 17 -7 39 -10 50 -2 11 -5 25 -5 30 -1 6
-6 16 -12 23 -6 6 -8 12 -5 12 6 0 -42 148 -63 195 -29 68 -104 216 -125 250
-14 22 -28 47 -32 55 -4 8 -11 20 -15 25 -39 50 -78 107 -78 115 0 5 -6 13
-12 17 -7 4 -38 37 -68 73 -76 89 -164 174 -250 240 -25 19 -46 38 -48 43 -2
4 -10 7 -17 7 -7 0 -15 4 -17 9 -1 5 -32 27 -68 50 -36 22 -69 44 -75 49 -19
15 -200 101 -285 135 -87 35 -295 90 -385 103 -27 3 -59 9 -70 11 -24 6 -381
14 -386 9z"/>
</g>
</svg>
